<mxfile host="app.diagrams.net" modified="2020-09-03T02:55:29.543Z" agent="5.0 (Windows NT 10.0; Win64; x64) AppleWebKit/537.36 (KHTML, like Gecko) Chrome/85.0.4183.83 Safari/537.36 Edg/85.0.564.44" etag="l2qbnsExr0x1KK73TGKE" version="13.6.6" type="github">
  <diagram id="o63E4Fd9s9_1DNCHHHtt" name="Page-1">
    <mxGraphModel dx="1102" dy="566" grid="1" gridSize="10" guides="1" tooltips="1" connect="1" arrows="1" fold="1" page="1" pageScale="1" pageWidth="827" pageHeight="1169" math="0" shadow="0">
      <root>
        <mxCell id="0" />
        <mxCell id="1" parent="0" />
        <mxCell id="LuRYaLzTvElj3dYYEjtJ-7" style="edgeStyle=orthogonalEdgeStyle;rounded=0;orthogonalLoop=1;jettySize=auto;html=1;exitX=0.5;exitY=1;exitDx=0;exitDy=0;" edge="1" parent="1" source="LuRYaLzTvElj3dYYEjtJ-1">
          <mxGeometry relative="1" as="geometry">
            <mxPoint x="170" y="160" as="targetPoint" />
          </mxGeometry>
        </mxCell>
        <mxCell id="LuRYaLzTvElj3dYYEjtJ-1" value="inicio&amp;nbsp;" style="ellipse;whiteSpace=wrap;html=1;" vertex="1" parent="1">
          <mxGeometry x="110" y="40" width="120" height="80" as="geometry" />
        </mxCell>
        <mxCell id="LuRYaLzTvElj3dYYEjtJ-3" value="" style="html=1;strokeWidth=2;shape=manualInput;whiteSpace=wrap;rounded=1;size=26;arcSize=11;" vertex="1" parent="1">
          <mxGeometry x="70" y="300" width="220" height="70" as="geometry" />
        </mxCell>
        <mxCell id="LuRYaLzTvElj3dYYEjtJ-6" style="edgeStyle=orthogonalEdgeStyle;rounded=0;orthogonalLoop=1;jettySize=auto;html=1;exitX=0.5;exitY=1;exitDx=0;exitDy=0;" edge="1" parent="1" source="LuRYaLzTvElj3dYYEjtJ-5" target="LuRYaLzTvElj3dYYEjtJ-3">
          <mxGeometry relative="1" as="geometry" />
        </mxCell>
        <mxCell id="LuRYaLzTvElj3dYYEjtJ-5" value="e_polegada ,s_ milÃ­metro" style="shape=internalStorage;whiteSpace=wrap;html=1;dx=15;dy=15;rounded=1;arcSize=8;strokeWidth=2;" vertex="1" parent="1">
          <mxGeometry x="70" y="170" width="220" height="70" as="geometry" />
        </mxCell>
        <mxCell id="LuRYaLzTvElj3dYYEjtJ-8" value="" style="rounded=1;whiteSpace=wrap;html=1;absoluteArcSize=1;arcSize=14;strokeWidth=2;" vertex="1" parent="1">
          <mxGeometry x="30" y="430" width="300" height="100" as="geometry" />
        </mxCell>
      </root>
    </mxGraphModel>
  </diagram>
</mxfile>
